Coordinates
version=1
nRows=22
nColumns=24
inDegrees=yes

Units are S.I. units (second, meters, Newtons, ...)
Angles are in degrees.

endheader
time	pelvis_tilt	pelvis_list	pelvis_rotation	pelvis_tx	pelvis_ty	pelvis_tz	hip_flexion_r	hip_adduction_r	hip_rotation_r	knee_angle_r	ankle_angle_r	subtalar_angle_r	mtp_angle_r	hip_flexion_l	hip_adduction_l	hip_rotation_l	knee_angle_l	ankle_angle_l	subtalar_angle_l	mtp_angle_l	lumbar_extension	lumbar_bending	lumbar_rotation
      5.54000000	     34.52451072	      4.11100183	      4.73975322	      2.31074215	      0.67853520	     -0.33809171	    -32.23330087	      3.71557513	    -10.51480368	    -10.33383617	     19.04506137	      8.30304808	      0.00000000	    -14.05818129	     -1.99783107	     -4.24327214	    -63.38896372	     10.55763016	      1.80102578	      0.00000000	    -59.99921338	      0.04247500	     -1.78778838
      5.54500000	     34.57986887	      3.90012878	      4.01678282	      2.31696915	      0.67866893	     -0.33823993	    -33.09605116	      3.55327109	     -9.90972246	     -9.86515065	     19.35895551	      8.53047958	      0.00000000	    -13.42651383	     -1.86076287	     -5.04098138	    -62.28592429	     11.08351346	      1.93810008	      0.00000000	    -60.11153683	     -0.26086763	     -1.24835527
      5.55000000	     34.49569030	      3.79575765	      3.60098841	      2.32327763	      0.67859124	     -0.33850225	    -33.85787513	      3.45535791	     -9.59237016	     -9.34617479	     19.63233835	      8.69013252	      0.00000000	    -12.58788460	     -1.71570910	     -5.50069873	    -61.20061951	     11.49595235	      2.30641870	      0.00000000	    -60.07403523	     -0.44871656	     -1.00256754
      5.55500000	     34.56078665	      3.54097663	      2.91776108	      2.32949932	      0.67849685	     -0.33872928	    -34.69664678	      3.31388242	     -8.97414730	     -8.94574023	     19.98366837	      8.88181468	      0.00000000	    -12.01911259	     -1.66670405	     -6.27255052	    -59.94523227	     11.90365582	      2.46988348	      0.00000000	    -60.19835377	     -0.67842473	     -0.45425037
      5.56000000	     34.48533428	      3.39350845	      2.54544219	      2.33581162	      0.67818015	     -0.33902168	    -35.43605824	      3.25572924	     -8.67752957	     -8.49131471	     20.31586956	      9.02653367	      0.00000000	    -11.24150231	     -1.61660617	     -6.72081884	    -58.71676180	     12.21122260	      2.87311257	      0.00000000	    -60.17232479	     -0.80429733	     -0.19532361
      5.56500000	     34.53716860	      3.12667293	      1.95451537	      2.34205933	      0.67786389	     -0.33932058	    -36.24477047	      3.14308224	     -8.11980545	     -8.13978320	     20.69265589	      9.20305773	      0.00000000	    -10.71148244	     -1.63208187	     -7.41199520	    -57.31181196	     12.51127792	      3.08933756	      0.00000000	    -60.28231135	     -0.96198406	      0.31947939
      5.57000000	     34.46723864	      2.95150665	      1.63952105	      2.34838591	      0.67734307	     -0.33966391	    -36.96455974	      3.11967823	     -7.85895216	     -7.74527641	     21.05447211	      9.33673216	      0.00000000	    -10.00345754	     -1.64796362	     -7.82002410	    -55.92447995	     12.71176562	      3.52271510	      0.00000000	    -60.26219708	     -1.02124934	      0.59336392
      5.57500000	     34.50921765	      2.67831494	      1.14784161	      2.35467335	      0.67682072	     -0.34001772	    -37.75680013	      3.04639354	     -7.38696777	     -7.42859954	     21.45746211	      9.52013624	      0.00000000	     -9.51878269	     -1.71337888	     -8.41545822	    -54.37781829	     12.91548310	      3.79330851	      0.00000000	    -60.35936197	     -1.10805371	      1.06186760
      5.58000000	     34.49779197	      2.44940947	      0.80435615	      2.36101460	      0.67615965	     -0.34040894	    -38.51565318	      3.02400460	     -7.07550287	     -7.08930155	     21.84709949	      9.66401299	      0.00000000	     -8.97499461	     -1.78099843	     -8.86033443	    -52.79625703	     13.05417465	      4.18632640	      0.00000000	    -60.39761302	     -1.13471010	      1.41882105
      5.58500000	     34.43611026	      2.24266832	      0.57457878	      2.36738621	      0.67537393	     -0.34080547	    -39.22584794	      3.05347565	     -6.89417666	     -6.75614843	     22.23743264	      9.81628439	      0.00000000	     -8.38286670	     -1.86500787	     -9.19748460	    -51.16850179	     13.10977731	      4.66956000	      0.00000000	    -60.38098091	     -1.11892475	      1.71285716
      5.59000000	     34.47174662	      1.98608119	      0.21430743	      2.37376325	      0.67459352	     -0.34122855	    -40.02470490	      3.01781963	     -6.58355803	     -6.45269527	     22.65161943	     10.02088636	      0.00000000	     -7.99655699	     -1.95276306	     -9.66126660	    -49.38924049	     13.20278695	      5.05780141	      0.00000000	    -60.46433351	     -1.13153053	      2.13656948
      5.59500000	     34.39723718	      1.78038770	      0.07306547	      2.38017279	      0.67363706	     -0.34166895	    -40.72326286	      3.09321274	     -6.49426213	     -6.13488008	     23.03724583	     10.16354888	      0.00000000	     -7.45579025	     -2.05584603	     -9.91920499	    -47.61633932	     13.19963826	      5.62279009	      0.00000000	    -60.43361014	     -1.05434156	      2.39546658
      5.60000000	     34.44299629	      1.54503912	     -0.21739892	      2.38663105	      0.67272120	     -0.34210545	    -41.54907571	      3.07181749	     -6.29050262	     -5.83226152	     23.44913749	     10.41178845	      0.00000000	     -7.16549745	     -2.13324104	    -10.30971599	    -45.67047798	     13.23699590	      6.10219974	      0.00000000	    -60.51029032	     -1.04773648	      2.81003203
      5.60500000	     34.36865037	      1.33927766	     -0.30513060	      2.39309556	      0.67162869	     -0.34255269	    -42.25245039	      3.17577964	     -6.27059022	     -5.52648049	     23.83049085	     10.57282843	      0.00000000	     -6.70836794	     -2.24409369	    -10.52915971	    -43.74063247	     13.19862867	      6.75769885	      0.00000000	    -60.47018210	     -0.94178954	      3.04947500
      5.61000000	     34.33189876	      1.13306029	     -0.42514082	      2.39960415	      0.67051328	     -0.34300532	    -43.00100690	      3.24722186	     -6.25669148	     -5.22501493	     24.21654525	     10.81481877	      0.00000000	     -6.36269734	     -2.33642967	    -10.78207243	    -41.70103602	     13.16819056	      7.43337797	      0.00000000	    -60.46007090	     -0.85609648	      3.34664869
      5.61500000	     34.30380220	      0.93945030	     -0.51968313	      2.40615956	      0.66934688	     -0.34345506	    -43.76916873	      3.32507030	     -6.27052969	     -4.91857468	     24.58252303	     11.04056427	      0.00000000	     -6.07364324	     -2.41228103	    -11.01165810	    -39.58295112	     13.12029448	      8.13720029	      0.00000000	    -60.44492989	     -0.76943813	      3.63865410
      5.62000000	     34.36990340	      0.76970651	     -0.66464012	      2.41271342	      0.66822309	     -0.34389836	    -44.63387704	      3.33610598	     -6.28360603	     -4.63156665	     24.92079270	     11.30485346	      0.00000000	     -5.96688400	     -2.43324853	    -11.27927003	    -37.33721536	     12.99506490	      8.82449549	      0.00000000	    -60.53111778	     -0.74256720	      4.01105982
      5.62500000	     34.36396873	      0.59641767	     -0.72329231	      2.41936296	      0.66696975	     -0.34431487	    -45.44759751	      3.42246814	     -6.36569299	     -4.31073207	     25.24265537	     11.52299057	      0.00000000	     -5.79849817	     -2.48774222	    -11.51852327	    -35.08062926	     12.90693024	      9.58354747	      0.00000000	    -60.51541913	     -0.66505462	      4.29653161
      5.63000000	     34.17721128	      0.41281634	     -0.57381398	      2.42602345	      0.66553272	     -0.34489518	    -46.04590571	      3.66794105	     -6.48270884	     -4.03877950	     25.46730562	     11.57991236	      0.00000000	     -5.37881627	     -2.56238825	    -11.48181320	    -32.88371471	     12.74512967	     10.28315948	      0.00000000	    -60.31592640	     -0.44183114	      4.56103203
      5.63500000	     34.30686367	      0.25997886	     -0.74261253	      2.43273269	      0.66430971	     -0.34521143	    -46.99726600	      3.64008652	     -6.58873190	     -3.76041550	     25.83455448	     12.01747850	      0.00000000	     -5.51418121	     -2.57478617	    -11.91843362	    -30.44391319	     12.64386074	     11.23630462	      0.00000000	    -60.43342053	     -0.45829541	      4.82218978
      5.64000000	     34.18188966	      0.08740217	     -0.65285676	      2.43954508	      0.66283275	     -0.34570191	    -47.67457580	      3.82828819	     -6.70127606	     -3.50133734	     26.07298741	     12.15378566	      0.00000000	     -5.29026328	     -2.63153325	    -12.02753730	    -28.13782585	     12.54422056	     12.12550797	      0.00000000	    -60.26463655	     -0.28871799	      5.01472469
      5.64500000	     34.16576626	     -0.07557233	     -0.64952459	      2.44638914	      0.66142852	     -0.34612968	    -48.46542684	      3.93308995	     -6.80238445	     -3.26372754	     26.29884941	     12.41415154	      0.00000000	     -5.26818961	     -2.65477905	    -12.25264814	    -25.75831290	     12.35146216	     12.98330564	      0.00000000	    -60.19970266	     -0.19842829	      5.28316520
